<?xml version="1.0" standalone="no"?>
<!DOCTYPE svg PUBLIC "-//W3C//DTD SVG 20010904//EN"
 "http://www.w3.org/TR/2001/REC-SVG-20010904/DTD/svg10.dtd">
<svg version="1.0" xmlns="http://www.w3.org/2000/svg"
 width="256.000000pt" height="256.000000pt" viewBox="0 0 256.000000 256.000000"
 preserveAspectRatio="xMidYMid meet">
<metadata>
Created by potrace 1.11, written by Peter Selinger 2001-2013
</metadata>
<g transform="translate(0.000000,256.000000) scale(0.100000,-0.100000)"
fill="#000000" stroke="none">
<path d="M0 1280 l0 -1280 1280 0 1280 0 0 1280 0 1280 -1280 0 -1280 0 0
-1280z m1157 564 c66 -48 88 -143 58 -259 -19 -73 -99 -243 -118 -251 -24 -9
-66 14 -82 46 -21 41 -14 87 32 205 19 50 35 110 36 135 l2 45 -52 3 c-126 7
-273 -133 -289 -276 -10 -81 13 -103 267 -262 162 -101 216 -251 149 -408 -58
-134 -245 -231 -420 -219 -180 12 -298 109 -316 259 -19 162 76 268 240 268
l45 0 -49 -64 c-137 -182 -50 -364 162 -342 146 15 230 99 213 213 -9 64 -64
119 -199 200 -195 118 -250 185 -250 309 0 64 4 80 41 156 62 124 173 222 292
255 71 20 203 13 238 -13z m570 11 c27 -19 44 -76 36 -119 -4 -17 -34 -109
-68 -203 l-62 -173 57 0 c31 0 97 -3 146 -6 l89 -7 54 169 c88 280 131 354
207 354 19 0 34 -4 34 -8 0 -4 -13 -46 -29 -92 -24 -69 -65 -203 -128 -423 -3
-10 -2 -17 3 -16 5 1 38 1 74 0 l65 -2 -52 -48 c-32 -30 -65 -51 -86 -55 l-34
-6 -22 -103 c-41 -192 -61 -329 -61 -423 0 -93 0 -94 -25 -94 -45 0 -105 31
-123 64 -34 63 -14 216 61 474 l25 82 -107 0 c-58 0 -122 -3 -142 -6 l-36 -6
-77 -247 c-95 -302 -92 -296 -127 -325 -26 -22 -104 -44 -115 -33 -15 14 80
381 136 524 l27 72 -50 -6 -50 -6 7 38 c11 55 25 73 81 100 l50 24 69 201 c38
110 66 203 63 206 -11 12 -46 -17 -76 -63 -43 -65 -65 -143 -57 -204 l7 -49
-35 0 c-80 0 -120 40 -118 120 1 63 31 120 100 192 94 99 227 146 289 103z"/>
</g>
</svg>
