<?xml version="1.0" encoding="UTF-8" standalone="no"?>
<svg
   xmlns:dc="http://purl.org/dc/elements/1.1/"
   xmlns:cc="http://creativecommons.org/ns#"
   xmlns:rdf="http://www.w3.org/1999/02/22-rdf-syntax-ns#"
   xmlns:svg="http://www.w3.org/2000/svg"
   xmlns="http://www.w3.org/2000/svg"
   xmlns:sodipodi="http://sodipodi.sourceforge.net/DTD/sodipodi-0.dtd"
   xmlns:inkscape="http://www.inkscape.org/namespaces/inkscape"
   width="58.405712mm"
   height="40.995598mm"
   viewBox="0 0 58.405712 40.995598"
   version="1.1"
   id="svg8"
   inkscape:version="1.0.1 (0767f8302a, 2020-10-17)"
   sodipodi:docname="SH.svg">
  <defs
     id="defs2" />
  <sodipodi:namedview
     id="base"
     pagecolor="#ffffff"
     bordercolor="#666666"
     borderopacity="1.0"
     inkscape:pageopacity="0.0"
     inkscape:pageshadow="2"
     inkscape:zoom="1.979899"
     inkscape:cx="95.114393"
     inkscape:cy="135.76526"
     inkscape:document-units="mm"
     inkscape:current-layer="layer5"
     inkscape:document-rotation="0"
     showgrid="false"
     fit-margin-top="0"
     fit-margin-left="0"
     fit-margin-right="0"
     fit-margin-bottom="0"
     inkscape:window-width="1464"
     inkscape:window-height="800"
     inkscape:window-x="72"
     inkscape:window-y="27"
     inkscape:window-maximized="1" />
  <metadata
     id="metadata5">
    <rdf:RDF>
      <cc:Work
         rdf:about="">
        <dc:format>image/svg+xml</dc:format>
        <dc:type
           rdf:resource="http://purl.org/dc/dcmitype/StillImage" />
        <dc:title></dc:title>
      </cc:Work>
    </rdf:RDF>
  </metadata>
  <g
     inkscape:label="Layer 1"
     inkscape:groupmode="layer"
     id="layer1"
     transform="translate(-80.66765,-91.283231)"
     style="display:inline">
    <g
       aria-label="SH"
       id="text835"
       style="font-size:50.8px;line-height:1.25;font-family:sans-serif;letter-spacing:0px;stroke-width:0.264583">
      <path
         d="m 91.28485,132.27883 q -2.7432,0 -5.1816,-1.016 -2.4384,-0.9652 -3.9624,-2.9972 -1.4732,-2.032 -1.4732,-5.08 0,-2.6416 1.016,-4.1148 1.0668,-1.4732 2.5908,-2.0828 1.524,-0.6096 2.8956,-0.6096 -1.3716,1.4732 -2.0828,3.2512 -0.7112,1.778 -0.7112,3.556 0,1.8796 0.8128,3.5052 0.8636,1.6256 2.5908,2.5908 1.7272,1.016 4.3688,1.016 2.286,0 4.4704,-0.8636 2.1844,-0.8128 3.556,-2.4384 1.4224,-1.6764 1.4224,-4.1148 0,-2.1844 -1.1176,-3.7592 -1.1176,-1.5748 -2.8956,-2.794 -1.7272,-1.2192 -3.7084,-2.3368 -1.9812,-1.1176 -3.7592,-2.3368 -1.7272,-1.27 -2.8448,-2.8956 -1.1176,-1.6256 -1.1176,-3.9116 0,-2.1336 1.016,-4.4704 1.016,-2.3368 2.8956,-4.419599 1.9304,-2.0828 4.572,-3.3528 2.6924,-1.3208 5.9944,-1.3208 2.9972,0 4.1656,1.4732 1.1684,1.4224 1.1684,3.6068 0,1.828799 -0.6604,3.962399 -0.6096,2.0828 -1.524,4.0132 -0.9144,1.8796 -1.7272,3.2004 -0.9144,-0.2032 -1.3208,-0.762 -0.3556,-0.6096 -0.3556,-1.4224 0,-1.0668 0.4572,-2.4384 0.4572,-1.3716 1.016,-2.8448 0.6096,-1.4732 1.0668,-2.844799 0.4572,-1.4224 0.4572,-2.54 0,-1.016 -0.6096,-1.5748 -0.6096,-0.6096 -2.2352,-0.6096 -2.3876,0 -4.4196,1.1176 -2.032,1.1176 -3.556,2.8956 -1.524,1.727199 -2.3876,3.657599 -0.8128,1.9304 -0.8128,3.5052 0,1.8796 1.0668,3.2512 1.1176,1.3208 2.8448,2.4384 1.7272,1.0668 3.6576,2.1844 1.9812,1.0668 3.7084,2.3876 1.7272,1.3208 2.794,3.1496 1.1176,1.778 1.1176,4.3688 0,2.6416 -1.1684,4.6736 -1.1684,1.9812 -3.1496,3.3528 -1.9304,1.3716 -4.2672,2.0828 -2.3368,0.7112 -4.6736,0.7112 z"
         style="font-style:normal;font-variant:normal;font-weight:normal;font-stretch:normal;font-family:'Dancing Script';-inkscape-font-specification:'Dancing Script';stroke-width:0.264583"
         id="path884" />
    </g>
  </g>
  <g
     inkscape:groupmode="layer"
     id="layer5"
     inkscape:label="Layer 2">
    <path
       d="m 109.76176,132.27883 q 0.3048,-1.778 0.7112,-3.6576 0.4064,-1.8288 1.016,-4.1148 0.6604,-2.3368 1.5748,-5.3848 0.9144,-3.048 2.286,-7.2136 -0.8128,0.0508 -1.6764,0.1524 -0.8128,0.1016 -1.6764,0.2032 0.0508,-1.27 1.1684,-1.9812 1.1684,-0.762 3.048,-1.1176 0.3556,-1.0668 0.7112,-2.1844 0.4064,-1.1684 0.8128,-2.3876 0.4064,-1.27 0.8636,-2.54 0.4572,-1.3208 0.9144,-2.7432 0.508,-1.4224 1.016,-2.895599 0.2032,-0.5588 0.4572,-1.3716 0.254,-0.8636 0.254,-1.6256 0,-0.4064 -0.1524,-0.5588 -0.1016,-0.1524 -0.5588,-0.1524 -1.2192,0 -2.3876,1.016 -1.1176,0.9652 -2.032,2.4892 -0.8636,1.523999 -1.3716,3.149599 -0.508,1.6256 -0.508,2.8956 0,0.4572 0.0508,0.9144 0.1016,0.4572 0.2032,0.8128 -1.6764,0 -2.3876,-0.8128 -0.6604,-0.8636 -0.6604,-2.0828 0,-1.7272 1.016,-3.4544 1.016,-1.727199 2.5908,-3.149599 1.6256,-1.4732 3.3528,-2.3368 1.778,-0.8636 3.2004,-0.8636 1.3716,0 1.8288,0.762 0.508,0.762 0.508,1.6764 0,0.5588 -0.1524,1.1176 -0.1016,0.5588 -0.254,1.0668 l -3.9624,12.903199 q 0.7112,-0.0508 1.4224,-0.0508 0.762,-0.0508 1.524,-0.0508 2.3876,0 4.5212,0.1524 2.1844,0.1016 4.1148,0.3048 1.016,-3.2512 1.9812,-6.4008 1.016,-3.1496 1.8288,-5.486399 0.8636,-2.3876 1.3208,-3.3528 0.2032,-0.4064 0.5588,-1.016 0.3556,-0.6096 0.9144,-1.1176 0.6096,-0.508 1.3208,-0.508 -0.7112,1.8796 -1.6256,4.826 -0.9144,2.895599 -1.8796,6.349999 -0.9144,3.4544 -1.8288,6.9088 1.016,0.0508 1.9304,0.1524 0.9652,0.0508 1.8796,0.0508 -1.1176,1.1684 -2.1844,1.4224 -1.0668,0.2032 -2.0828,0.2032 -0.4572,1.8796 -0.8636,3.6576 -0.4064,1.7272 -0.7112,3.302 -0.9144,4.318 -1.3208,7.366 -0.3556,3.048 -0.3556,4.9276 0,0.6096 0,1.016 0.0508,0.4572 0.1016,0.8128 -1.9812,-0.2032 -2.7432,-1.1176 -0.762,-0.9144 -0.762,-2.8448 0,-1.3208 0.3048,-3.302 0.3048,-2.032 0.9144,-4.3688 0.4064,-1.524 1.1176,-4.0132 0.7112,-2.54 1.5748,-5.3848 -3.0988,0 -5.1816,0.0508 -2.0828,0.0508 -3.6068,0.1016 -1.524,0.0508 -3.048,0.2032 -0.9144,2.9464 -1.8288,5.842 -0.9144,2.8956 -1.6764,5.334 -0.762,2.3876 -1.27,4.064 -0.508,1.6764 -0.6604,2.1844 -0.508,1.7272 -1.6256,2.4892 -1.0668,0.762 -1.8796,0.762 z"
       style="display:inline;font-size:50.8px;line-height:1.25;font-family:'Dancing Script';letter-spacing:0px;stroke-width:0.264583;font-style:normal;font-variant:normal;font-weight:normal;font-stretch:normal;-inkscape-font-specification:'Dancing Script'"
       id="path886"
       transform="translate(-80.667651,-91.283232)" />
  </g>
</svg>
